<?xml version="1.0" encoding="UTF-8" standalone="no"?>
<!-- Created with Inkscape (http://www.inkscape.org/) -->

<svg
   width="15.999929"
   height="16.000019"
   viewBox="0 0 4.2333145 4.2333383"
   version="1.1"
   id="svg1"
   inkscape:version="1.4.4 (dcaf3e7, 2026-05-05)"
   sodipodi:docname="Snail.svg"
   xmlns:inkscape="http://www.inkscape.org/namespaces/inkscape"
   xmlns:sodipodi="http://sodipodi.sourceforge.net/DTD/sodipodi-0.dtd"
   xmlns="http://www.w3.org/2000/svg"
   xmlns:svg="http://www.w3.org/2000/svg">
  <sodipodi:namedview
     id="namedview1"
     pagecolor="#ffffff"
     bordercolor="#000000"
     borderopacity="0.25"
     inkscape:showpageshadow="false"
     inkscape:pageopacity="0.0"
     inkscape:pagecheckerboard="false"
     inkscape:deskcolor="#d1d1d1"
     inkscape:document-units="px"
     showgrid="true"
     inkscape:zoom="64"
     inkscape:cx="9.4609375"
     inkscape:cy="29.835938"
     inkscape:window-width="3840"
     inkscape:window-height="2054"
     inkscape:window-x="1609"
     inkscape:window-y="-11"
     inkscape:window-maximized="1"
     inkscape:current-layer="layer1"
     inkscape:antialias-rendering="false"
     showborder="false"
     borderlayer="false">
    <inkscape:grid
       id="grid1"
       units="px"
       originx="2.84251e-09"
       originy="-5.2916675"
       spacingx="0.26458332"
       spacingy="0.26458333"
       empcolor="#0099e5"
       empopacity="0.30196078"
       color="#0099e5"
       opacity="0.14901961"
       empspacing="5"
       enabled="true"
       visible="true" />
    <inkscape:page
       x="0"
       y="0"
       width="4.2333145"
       height="4.2333384"
       id="page2"
       margin="0"
       bleed="0" />
  </sodipodi:namedview>
  <defs
     id="defs1" />
  <g
     inkscape:label="Layer 1"
     inkscape:groupmode="layer"
     id="layer1"
     transform="translate(0,-5.2916675)">
    <path
       style="mix-blend-mode:normal;fill:#e0e0e0;fill-opacity:1;fill-rule:evenodd;stroke-width:0.00444148;stroke-dasharray:none"
       d="M 0.03710362,9.5162597 C 0.02961349,9.5110902 0.01963702,9.4999365 0.01493372,9.4914742 -0.0016986,9.4615485 0.00298866,9.4464698 0.07563436,9.296204 0.18929126,9.061108 0.2031116,9.0350203 0.23039881,9.0040661 c 0.0425768,-0.048299 0.0966689,-0.074553 0.16609654,-0.080616 0.0201092,-0.00174 0.0365621,-0.00402 0.0365621,-0.00503 0,-9.971e-4 -0.0125841,-0.021473 -0.0279645,-0.045471 C 0.18437296,8.5285694 0.05587628,8.1530272 0.00813442,7.7128 -0.00272055,7.6127068 -0.00270871,7.2825554 0.00815337,7.1840498 0.06037263,6.7104852 0.21147347,6.3138834 0.46781599,5.9775506 0.52334289,5.9046967 0.63403886,5.7838337 0.70048344,5.7235133 0.75988928,5.669583 0.87288782,5.5828213 0.93707873,5.5418524 1.1493201,5.4063926 1.409964,5.3156818 1.6456032,5.2952675 c 0.083103,-0.0072 0.2804769,-0.00301 0.3458128,0.00734 C 2.362232,5.3613595 2.6774389,5.5366 2.9339877,5.8266317 3.2061653,6.1343325 3.3733765,6.5304881 3.42324,6.9857651 3.43216,7.0671957 3.435526,7.2724678 3.42943,7.363444 3.389755,7.9560364 3.1117309,8.4798137 2.6879062,8.7604255 2.6060932,8.8145934 2.4889296,8.8742704 2.4000993,8.9070196 c -0.015513,0.00573 -0.028206,0.011633 -0.028206,0.013143 0,0.00578 0.3942392,-0.00361 0.4262099,-0.010139 0.045134,-0.00921 0.091303,-0.02819 0.1464861,-0.060194 0.1531376,-0.088813 0.2707442,-0.2526118 0.3108005,-0.4328777 0.00557,-0.025068 0.021669,-0.1167507 0.035776,-0.203735 0.053804,-0.3318015 0.092624,-0.5194617 0.1450234,-0.7010659 0.032233,-0.111712 0.029033,-0.1062218 0.061927,-0.1062218 0.025758,0 0.027054,-5.409e-4 0.027054,-0.011313 0,-0.011951 0.043797,-0.7802921 0.04825,-0.8464554 l 0.0026,-0.038679 -0.02555,-0.014572 C 3.5160232,6.4752573 3.4943172,6.452063 3.4803832,6.42 3.4705332,6.397338 3.4687982,6.387536 3.4689732,6.355509 3.4692136,6.31116 3.4779032,6.285032 3.5027702,6.2538737 3.5390082,6.2084677 3.60508,6.1928717 3.6534367,6.2183097 c 0.022514,0.011845 0.059845,0.0471 0.059682,0.056364 -5.16e-5,0.00292 -0.02359,0.021906 -0.052306,0.042202 -0.028716,0.020297 -0.051197,0.038758 -0.049956,0.041028 0.00122,0.00227 0.023838,0.020571 0.050216,0.040672 0.026378,0.020103 0.047961,0.039167 0.047961,0.042369 0,0.00994 -0.036459,0.042666 -0.060624,0.054433 l -0.023009,0.011204 0.00233,0.044849 c 0.00128,0.024668 0.00876,0.2094938 0.016622,0.4107256 0.00787,0.2012319 0.015495,0.3844652 0.016955,0.407185 l 0.00265,0.041309 h 0.070259 0.070259 l 0.00241,-0.029507 c 0.0013,-0.016228 0.00709,-0.1920259 0.012826,-0.3906612 0.00574,-0.1986356 0.011612,-0.3891762 0.013053,-0.4234237 l 0.00262,-0.06227 -0.019153,-0.010171 c -0.028662,-0.015218 -0.055118,-0.044022 -0.068305,-0.074362 -0.00997,-0.022937 -0.011695,-0.032635 -0.011522,-0.064745 2.405e-4,-0.044349 0.00893,-0.070475 0.033797,-0.1016353 0.036238,-0.045406 0.1023098,-0.061002 0.1506663,-0.035564 0.022429,0.011798 0.059775,0.047022 0.059775,0.056375 0,0.00292 -0.015291,0.015831 -0.033983,0.028691 -0.043584,0.029986 -0.066304,0.048637 -0.066304,0.054428 0,0.00252 0.021624,0.021859 0.048053,0.042959 0.02643,0.0211 0.048053,0.040018 0.048053,0.042036 0,0.00837 -0.03633,0.039848 -0.061119,0.052953 -0.024929,0.013181 -0.02663,0.015089 -0.02663,0.029869 0,0.01684 0.023982,0.477474 0.037708,0.7242301 0.00455,0.081634 0.00825,0.1501622 0.00825,0.1522847 0,0.00213 0.012954,0.0025 0.028789,8.37e-4 0.027166,-0.00285 0.029153,-0.00239 0.035242,0.00823 0.00921,0.016049 0.032928,0.1069564 0.061458,0.2354985 0.054133,0.2439025 0.097088,0.4896413 0.1572074,0.8993476 0.015134,0.1031333 0.015934,0.1139128 0.015947,0.2148046 1.33e-5,0.1154206 -0.00454,0.1596647 -0.027072,0.2635602 -0.05678,0.2617084 -0.1644793,0.4048883 -0.3634951,0.4832492 l -0.039696,0.01563 -1.8761597,0.00118 C 0.06000527,9.525654 0.05066445,9.525624 0.03711335,9.516254 Z M 1.5779745,8.9109213 C 1.5653344,8.9055116 1.5352492,8.8926416 1.511118,8.8823267 1.4869871,8.8720074 1.4409192,8.8491822 1.4087441,8.8315956 0.99069925,8.6030942 0.70934837,8.1306534 0.66676029,7.5856654 0.65974032,7.4958271 0.66387331,7.3129358 0.67471926,7.2334714 0.69798454,7.0630226 0.73815935,6.9212067 0.80447511,6.7754366 0.95743413,6.439214 1.2179408,6.2014851 1.527832,6.1153273 1.609111,6.0927294 1.6623713,6.0843903 1.7472048,6.0809793 2.1405933,6.0651593 2.4946902,6.3054607 2.6665419,6.7048702 2.7325109,6.8581927 2.7636909,7.0052697 2.7676801,7.181958 2.7719901,7.3725352 2.7447631,7.5212661 2.6770051,7.6773932 2.6273951,7.7917046 2.5801121,7.8650883 2.5002864,7.9516617 2.4220624,8.0364986 2.3356375,8.0983316 2.2381825,8.1391851 2.1413435,8.1797802 2.0726912,8.1918092 1.9583561,8.1882121 1.8453383,8.1846573 1.7799427,8.1668741 1.6845272,8.113749 1.4898298,8.0053456 1.3542693,7.7895354 1.3269737,7.5445291 c -0.00628,-0.056381 -0.00264,-0.1894447 0.00645,-0.2353732 0.035605,-0.1799821 0.1319251,-0.3279725 0.2612637,-0.4014138 0.065088,-0.03696 0.1314958,-0.052003 0.2124656,-0.048133 0.063998,0.00305 0.090121,0.010448 0.1453162,0.041085 0.081933,0.045483 0.1410307,0.1246538 0.1693132,0.2268236 0.00818,0.029519 0.00967,0.04455 0.00919,0.09194 -9.661e-4,0.095173 -0.025523,0.1693747 -0.07615,0.2301183 -0.019699,0.023634 -0.034923,0.0366 -0.058298,0.049645 C 1.9656964,7.516426 1.9637064,7.516875 1.9187214,7.516773 1.8729074,7.5166689 1.8722744,7.5165131 1.8355564,7.49634 1.7745134,7.4628 1.7468754,7.422105 1.7421824,7.3588535 c -0.00261,-0.035197 0.00414,-0.088332 0.014074,-0.1106464 0.00357,-0.00803 0.013245,-0.022553 0.021502,-0.032292 l 0.015011,-0.017703 h -0.012624 c -0.019818,0 -0.056135,0.013646 -0.077929,0.029281 -0.039065,0.028027 -0.072431,0.083823 -0.084385,0.1411128 -0.00799,0.038302 -0.00818,0.1240207 -3.691e-4,0.1656729 0.025614,0.1365456 0.1259157,0.2569059 0.2488242,0.2985847 0.036007,0.012209 0.1069323,0.017627 0.1632844,0.012472 0.1073325,-0.00982 0.2086619,-0.06596 0.2911138,-0.1612778 C 2.3729167,7.6236737 2.4058787,7.5672888 2.4350405,7.4884365 2.471199,7.390667 2.483024,7.3079785 2.4792426,7.1793277 2.4756091,7.055703 2.4578184,6.9730673 2.4111559,6.8630792 2.3743264,6.7762679 2.3405468,6.7230262 2.2761063,6.65022 2.2114893,6.5772143 2.1636806,6.5385462 2.0873568,6.4975571 1.9202089,6.4077916 1.721232,6.3965631 1.5355083,6.4664156 1.2690661,6.5666272 1.064879,6.8175371 0.98626049,7.1413441 0.95750169,7.2597913 0.95336329,7.298452 0.95338659,7.4484249 c 2.217e-5,0.1430675 0.003381,0.1814695 0.024974,0.2856196 0.0446578,0.2153908 0.14224631,0.41473 0.27827511,0.5684181 0.1555491,0.1757425 0.3484284,0.2846661 0.5741402,0.3242314 0.056886,0.00998 0.2262757,0.011384 0.2862293,0.00239 C 2.2908513,8.6029927 2.4553576,8.5335255 2.5985083,8.425749 2.6714839,8.370811 2.713587,8.3319395 2.7748014,8.2629963 2.9880874,8.0227781 3.1198526,7.6936938 3.1406654,7.3492489 3.1549596,7.1126824 3.1346111,6.9120576 3.0754578,6.7063368 3.0055353,6.4631634 2.8996266,6.262217 2.7503279,6.0894507 2.5447598,5.85157 2.2981373,5.7057193 2.006904,5.6497956 1.8990108,5.6290774 1.7151004,5.6258418 1.6015233,5.6426632 1.3025866,5.6869375 1.0176016,5.8381682 0.80027452,6.0678555 0.60111836,6.2783376 0.46548277,6.5146961 0.37746655,6.8046399 c -0.0969798,0.3194716 -0.11910536,0.6760319 -0.0633144,1.020329 0.0526685,0.3250282 0.17630042,0.6377419 0.35040783,0.8863195 0.0384085,0.054837 0.049231,0.068779 0.11635299,0.1498913 l 0.0498104,0.060192 0.38511663,-3.02e-4 0.3851166,-3.023e-4 z"
       id="path28"
       inkscape:export-filename="IconSnail.svg"
       inkscape:export-xdpi="96"
       inkscape:export-ydpi="96" />
  </g>
</svg>
