<?xml version="1.0" encoding="UTF-8" standalone="no"?>
<!-- Created with Inkscape (http://www.inkscape.org/) -->

<svg
   width="16"
   height="16"
   viewBox="0 0 16 16"
   version="1.1"
   id="svg1"
   xml:space="preserve"
   inkscape:export-filename="DataIcon.svg"
   inkscape:export-xdpi="96"
   inkscape:export-ydpi="96"
   inkscape:version="1.4.4 (dcaf3e7, 2026-05-05)"
   sodipodi:docname="snail_working.svg"
   xmlns:inkscape="http://www.inkscape.org/namespaces/inkscape"
   xmlns:sodipodi="http://sodipodi.sourceforge.net/DTD/sodipodi-0.dtd"
   xmlns:xlink="http://www.w3.org/1999/xlink"
   xmlns="http://www.w3.org/2000/svg"
   xmlns:svg="http://www.w3.org/2000/svg"><sodipodi:namedview
     id="namedview1"
     pagecolor="#ffffff"
     bordercolor="#000000"
     borderopacity="0.25"
     inkscape:showpageshadow="2"
     inkscape:pageopacity="0.0"
     inkscape:pagecheckerboard="0"
     inkscape:deskcolor="#d1d1d1"
     inkscape:document-units="px"
     showborder="false"
     showgrid="true"
     inkscape:zoom="45.254834"
     inkscape:cx="23.080407"
     inkscape:cy="6.0656503"
     inkscape:window-width="3840"
     inkscape:window-height="2054"
     inkscape:window-x="1609"
     inkscape:window-y="-11"
     inkscape:window-maximized="1"
     inkscape:current-layer="layer1"><inkscape:grid
       id="grid1"
       units="px"
       originx="0"
       originy="0"
       spacingx="1"
       spacingy="1"
       empcolor="#0099e5"
       empopacity="0.30196078"
       color="#0099e5"
       opacity="0.14901961"
       empspacing="5"
       enabled="true"
       visible="true" /><inkscape:page
       x="0"
       y="0"
       width="16"
       height="16"
       id="page3"
       margin="0"
       bleed="0" /></sodipodi:namedview><defs
     id="defs1"><color-profile
       name="sRGB-IEC61966-2.1"
       xlink:href="../../../../WINDOWS/system32/spool/drivers/color/sRGB%20Color%20Space%20Profile.icm"
       id="color-profile1" /><linearGradient
       id="a"
       gradientUnits="userSpaceOnUse"
       x2="0"
       y1="1"
       y2="15"><stop
         offset="0"
         stop-color="#ff5f5f"
         id="stop1" /><stop
         offset=".5"
         stop-color="#e1da5b"
         id="stop2" /><stop
         offset="1"
         stop-color="#5fff97"
         id="stop3" /></linearGradient><linearGradient
       inkscape:collect="always"
       xlink:href="#a"
       id="linearGradient4"
       gradientUnits="userSpaceOnUse"
       y1="1"
       x2="0"
       y2="15" /><linearGradient
       inkscape:collect="always"
       xlink:href="#a"
       id="linearGradient7"
       x1="7.3031945"
       y1="2.7791433"
       x2="8.6977701"
       y2="18.719219"
       gradientUnits="userSpaceOnUse" /></defs><g
     inkscape:label="Layer 1"
     inkscape:groupmode="layer"
     id="layer1"><path
       d="m 12,1.9999997 a 1,1 0 0 1 0,2 A 8,8 0 0 0 4,12 1,1 0 0 1 2,12 10,10 0 0 1 12,1.9999997 Z m 0,4 A 1.0000001,1.0000001 0 0 1 12,8 4,4 0 0 0 8,12 1,1 0 0 1 6,12 6,6 0 0 1 12,5.9999997 Z M 12,10 a 2,2 0 0 1 0,4 2,2 0 0 1 0,-4 z"
       fill="url(#a)"
       id="path3-2"
       style="fill:url(#linearGradient4)" /><path
       id="path1"
       style="fill:url(#linearGradient7);fill-opacity:1;fill-rule:evenodd"
       d="m 14.378906,4.5 a 0.5,0.5 0 0 0 -0.5,0.5 0.5,0.5 0 0 0 0.425782,0.4941406 L 14.183594,8 H 14 c -0.666667,1.6666667 -0.58115,4.290657 -2,5 -3.3333333,0.333333 -8.0771528,1.05146 -10,1 -0.7746598,-0.02389 -1.07947579,0.934414 -2,2 h 15 c 0.363459,0.06839 1.02977,-0.681384 1,-2 -0.147846,-1.921875 -0.24738,-5.7925942 -0.4375,-5.9941406 -7.76e-4,-6.977e-4 -0.0051,-0.00333 -0.0059,-0.00391 L 15.554688,8 h -0.002 l -0.002,-0.00195 c -7.91e-4,-7.82e-5 -0.0051,-4.8e-5 -0.0059,0 h -0.002 -0.002 L 15.539062,8 h -0.1875 L 15.234375,5.4941406 A 0.5,0.5 0 0 0 15.660156,5 0.5,0.5 0 0 0 15.160156,4.5 0.5,0.5 0 0 0 14.769531,4.6894531 0.5,0.5 0 0 0 14.378906,4.5 Z m 0.390625,0.8125 a 0.5,0.5 0 0 0 0.31836,0.1816406 L 15,8 H 14.533203 L 14.455078,5.4941406 A 0.5,0.5 0 0 0 14.769531,5.3125 Z" /></g></svg>
