<?xml version="1.0" encoding="UTF-8" standalone="no"?>
<!-- Created with Inkscape (http://www.inkscape.org/) -->

<svg
   width="16"
   height="16"
   viewBox="0 0 16 16"
   version="1.1"
   id="svg1"
   xml:space="preserve"
   xmlns:inkscape="http://www.inkscape.org/namespaces/inkscape"
   xmlns:sodipodi="http://sodipodi.sourceforge.net/DTD/sodipodi-0.dtd"
   xmlns:xlink="http://www.w3.org/1999/xlink"
   xmlns="http://www.w3.org/2000/svg"
   xmlns:svg="http://www.w3.org/2000/svg"><sodipodi:namedview
     id="namedview1"
     pagecolor="#ffffff"
     bordercolor="#000000"
     borderopacity="0.25"
     inkscape:showpageshadow="2"
     inkscape:pageopacity="0.0"
     inkscape:pagecheckerboard="0"
     inkscape:deskcolor="#d1d1d1"
     inkscape:document-units="px"
     showborder="false"
     showgrid="true"><inkscape:grid
       id="grid1"
       units="px"
       originx="0"
       originy="0"
       spacingx="1"
       spacingy="1"
       empcolor="#0099e5"
       empopacity="0.30196078"
       color="#0099e5"
       opacity="0.14901961"
       empspacing="5"
       enabled="true"
       visible="true" /><inkscape:page
       x="0"
       y="0"
       width="16"
       height="16"
       id="page3"
       margin="0"
       bleed="0" /></sodipodi:namedview><defs
     id="defs1"><color-profile
       name="sRGB-IEC61966-2.1"
       xlink:href="../../../../WINDOWS/system32/spool/drivers/color/sRGB%20Color%20Space%20Profile.icm"
       id="color-profile1" /></defs><g
     inkscape:label="Layer 1"
     inkscape:groupmode="layer"
     id="layer1"><circle
       cx="8"
       cy="8"
       r="5"
       fill="none"
       stroke-width="2"
       stroke="#e0e0e0"
       id="circle1" /><path
       style="fill:#e0e0e0;fill-opacity:1;fill-rule:evenodd"
       d="M 15,8 15.087665,5.4947815 15.159716,5.5 15.235259,5.4942602 15.350932,8 h 0.1875 C 15.744146,7.8896589 15.846144,12 16,14 c 0.02977,1.318616 -0.636541,2.068391 -1,2 H 0 c 0.92052421,-1.065586 1.2253402,-2.023894 2,-2 1.9228472,0.05146 6.6666667,-0.666667 10,-1 1.41885,-0.709343 1.333333,-3.3333333 2,-5 h 0.183718 L 14.304333,5.4944738 14.378466,5.5 14.455319,5.4940583 14.533087,8"
       id="path1"
       sodipodi:nodetypes="ccccccccccccccccc" /><circle
       style="fill:#e0e0e0;fill-opacity:1;fill-rule:evenodd"
       id="path2"
       r="0.5"
       cy="5"
       cx="14.378466" /><circle
       style="fill:#e0e0e0;fill-opacity:1;fill-rule:evenodd"
       id="path3"
       r="0.5"
       cy="5"
       cx="15.159716" /></g></svg>
